<mxfile host="app.diagrams.net" modified="2024-03-05T16:10:06.873Z" agent="Mozilla/5.0 (Windows NT 10.0; Win64; x64) AppleWebKit/537.36 (KHTML, like Gecko) Chrome/122.0.0.0 Safari/537.36" etag="n9IUqoIRP4WASjQauFmx" version="24.0.1" type="github">
  <diagram id="C5RBs43oDa-KdzZeNtuy" name="Page-1">
    <mxGraphModel dx="954" dy="600" grid="1" gridSize="10" guides="1" tooltips="1" connect="1" arrows="1" fold="1" page="1" pageScale="1" pageWidth="827" pageHeight="1169" math="0" shadow="0">
      <root>
        <mxCell id="WIyWlLk6GJQsqaUBKTNV-0" />
        <mxCell id="WIyWlLk6GJQsqaUBKTNV-1" parent="WIyWlLk6GJQsqaUBKTNV-0" />
        <mxCell id="vjc5_O9NxNauFmne4AWA-8" style="edgeStyle=orthogonalEdgeStyle;rounded=0;orthogonalLoop=1;jettySize=auto;html=1;exitX=0.5;exitY=1;exitDx=0;exitDy=0;exitPerimeter=0;entryX=0.5;entryY=0;entryDx=0;entryDy=0;" edge="1" parent="WIyWlLk6GJQsqaUBKTNV-1" source="vjc5_O9NxNauFmne4AWA-0" target="vjc5_O9NxNauFmne4AWA-2">
          <mxGeometry relative="1" as="geometry" />
        </mxCell>
        <mxCell id="vjc5_O9NxNauFmne4AWA-0" value="Inicio" style="strokeWidth=2;html=1;shape=mxgraph.flowchart.start_1;whiteSpace=wrap;" vertex="1" parent="WIyWlLk6GJQsqaUBKTNV-1">
          <mxGeometry x="386" y="20" width="56" height="40" as="geometry" />
        </mxCell>
        <mxCell id="vjc5_O9NxNauFmne4AWA-1" value="Fin" style="strokeWidth=2;html=1;shape=mxgraph.flowchart.start_1;whiteSpace=wrap;" vertex="1" parent="WIyWlLk6GJQsqaUBKTNV-1">
          <mxGeometry x="570" y="300" width="56" height="40" as="geometry" />
        </mxCell>
        <mxCell id="vjc5_O9NxNauFmne4AWA-9" style="edgeStyle=orthogonalEdgeStyle;rounded=0;orthogonalLoop=1;jettySize=auto;html=1;exitX=0.5;exitY=1;exitDx=0;exitDy=0;entryX=0.5;entryY=0;entryDx=0;entryDy=0;" edge="1" parent="WIyWlLk6GJQsqaUBKTNV-1" source="vjc5_O9NxNauFmne4AWA-2" target="vjc5_O9NxNauFmne4AWA-3">
          <mxGeometry relative="1" as="geometry" />
        </mxCell>
        <mxCell id="vjc5_O9NxNauFmne4AWA-2" value="RastrearPaquete" style="rounded=1;whiteSpace=wrap;html=1;absoluteArcSize=1;arcSize=14;strokeWidth=2;" vertex="1" parent="WIyWlLk6GJQsqaUBKTNV-1">
          <mxGeometry x="364" y="80" width="100" height="30" as="geometry" />
        </mxCell>
        <mxCell id="vjc5_O9NxNauFmne4AWA-3" value="Query SELECT WHERE #rastreo = #rastreo" style="rounded=1;whiteSpace=wrap;html=1;absoluteArcSize=1;arcSize=14;strokeWidth=2;" vertex="1" parent="WIyWlLk6GJQsqaUBKTNV-1">
          <mxGeometry x="286" y="130" width="256" height="30" as="geometry" />
        </mxCell>
        <mxCell id="vjc5_O9NxNauFmne4AWA-4" value="Â¿Paquete encontrado?" style="strokeWidth=2;html=1;shape=mxgraph.flowchart.decision;whiteSpace=wrap;" vertex="1" parent="WIyWlLk6GJQsqaUBKTNV-1">
          <mxGeometry x="321" y="180" width="186" height="60" as="geometry" />
        </mxCell>
        <mxCell id="vjc5_O9NxNauFmne4AWA-5" value="&quot;No encontrado&quot;" style="strokeWidth=2;html=1;shape=mxgraph.flowchart.display;whiteSpace=wrap;" vertex="1" parent="WIyWlLk6GJQsqaUBKTNV-1">
          <mxGeometry x="580" y="180" width="100" height="60" as="geometry" />
        </mxCell>
        <mxCell id="vjc5_O9NxNauFmne4AWA-6" style="edgeStyle=orthogonalEdgeStyle;rounded=0;orthogonalLoop=1;jettySize=auto;html=1;exitX=1;exitY=0.5;exitDx=0;exitDy=0;exitPerimeter=0;entryX=0;entryY=0.5;entryDx=0;entryDy=0;entryPerimeter=0;" edge="1" parent="WIyWlLk6GJQsqaUBKTNV-1" source="vjc5_O9NxNauFmne4AWA-4" target="vjc5_O9NxNauFmne4AWA-5">
          <mxGeometry relative="1" as="geometry" />
        </mxCell>
        <mxCell id="vjc5_O9NxNauFmne4AWA-7" value="&lt;blockquote style=&quot;margin: 0 0 0 40px; border: none; padding: 0px;&quot;&gt;&lt;span style=&quot;background-color: initial;&quot;&gt;RastreoResponse{&lt;br&gt;&lt;/span&gt;&lt;span style=&quot;background-color: initial;&quot;&gt;&quot;Terminal origen&quot;: ,&lt;br&gt;&lt;/span&gt;&lt;span style=&quot;background-color: initial;&quot;&gt;&quot;Terminal destino&quot;: ,&lt;/span&gt;&lt;div style=&quot;&quot;&gt;&quot;Estatus&quot;:&amp;nbsp;&lt;/div&gt;&lt;div style=&quot;&quot;&gt;}&lt;/div&gt;&lt;/blockquote&gt;" style="strokeWidth=2;html=1;shape=mxgraph.flowchart.document2;whiteSpace=wrap;size=0.25;align=left;" vertex="1" parent="WIyWlLk6GJQsqaUBKTNV-1">
          <mxGeometry x="329" y="260" width="170" height="120" as="geometry" />
        </mxCell>
        <mxCell id="vjc5_O9NxNauFmne4AWA-10" style="edgeStyle=orthogonalEdgeStyle;rounded=0;orthogonalLoop=1;jettySize=auto;html=1;exitX=0.5;exitY=1;exitDx=0;exitDy=0;entryX=0.5;entryY=0;entryDx=0;entryDy=0;entryPerimeter=0;" edge="1" parent="WIyWlLk6GJQsqaUBKTNV-1" source="vjc5_O9NxNauFmne4AWA-3" target="vjc5_O9NxNauFmne4AWA-4">
          <mxGeometry relative="1" as="geometry" />
        </mxCell>
        <mxCell id="vjc5_O9NxNauFmne4AWA-11" style="edgeStyle=orthogonalEdgeStyle;rounded=0;orthogonalLoop=1;jettySize=auto;html=1;exitX=0.5;exitY=1;exitDx=0;exitDy=0;exitPerimeter=0;entryX=0.5;entryY=0;entryDx=0;entryDy=0;entryPerimeter=0;" edge="1" parent="WIyWlLk6GJQsqaUBKTNV-1" source="vjc5_O9NxNauFmne4AWA-4" target="vjc5_O9NxNauFmne4AWA-7">
          <mxGeometry relative="1" as="geometry" />
        </mxCell>
        <mxCell id="vjc5_O9NxNauFmne4AWA-12" style="edgeStyle=orthogonalEdgeStyle;rounded=0;orthogonalLoop=1;jettySize=auto;html=1;exitX=1;exitY=0.5;exitDx=0;exitDy=0;exitPerimeter=0;entryX=0;entryY=0.5;entryDx=0;entryDy=0;entryPerimeter=0;" edge="1" parent="WIyWlLk6GJQsqaUBKTNV-1" source="vjc5_O9NxNauFmne4AWA-7" target="vjc5_O9NxNauFmne4AWA-1">
          <mxGeometry relative="1" as="geometry" />
        </mxCell>
        <mxCell id="vjc5_O9NxNauFmne4AWA-13" value="Si" style="text;html=1;align=center;verticalAlign=middle;resizable=0;points=[];autosize=1;strokeColor=none;fillColor=none;" vertex="1" parent="WIyWlLk6GJQsqaUBKTNV-1">
          <mxGeometry x="415" y="228" width="30" height="30" as="geometry" />
        </mxCell>
        <mxCell id="vjc5_O9NxNauFmne4AWA-14" value="No" style="text;html=1;align=center;verticalAlign=middle;resizable=0;points=[];autosize=1;strokeColor=none;fillColor=none;" vertex="1" parent="WIyWlLk6GJQsqaUBKTNV-1">
          <mxGeometry x="480" y="188" width="40" height="30" as="geometry" />
        </mxCell>
      </root>
    </mxGraphModel>
  </diagram>
</mxfile>
